HIERARCHY
ROOT Hips
{
	OFFSET 0.000000 0.000000 0.000000
	CHANNELS 6 Xposition Yposition Zposition Xrotation Yrotation Zrotation
	JOINT LeftUpLeg_virtual
	{
		OFFSET 0.000000 0.000000 0.000000
		CHANNELS 3 Xrotation Yrotation Zrotation
		JOINT LeftUpLeg
		{
			OFFSET 13.026900 -6.336304 -1.092800
			CHANNELS 3 Xrotation Yrotation Zrotation
			JOINT LeftLeg
			{
				OFFSET 0.524474 -46.096886 9.782700
				CHANNELS 3 Xrotation Yrotation Zrotation
				JOINT LeftFoot
				{
					OFFSET -0.524474 -53.427422 -12.948200
					CHANNELS 3 Xrotation Yrotation Zrotation
					JOINT LeftToeBase
					{
						OFFSET 0.192200 -14.009700 16.364100
						CHANNELS 3 Xrotation Yrotation Zrotation
						JOINT LeftToe_End
						{
							OFFSET -1.784700 -0.561700 9.474800
							CHANNELS 3 Xrotation Yrotation Zrotation
							End Site
							{
								OFFSET 0 0 0
							}
						}
					}
				}
			}
		}
	}
	JOINT RightUpLeg_virtual
	{
		OFFSET 0.000000 0.000000 0.000000
		CHANNELS 3 Xrotation Yrotation Zrotation
		JOINT RightUpLeg
		{
			OFFSET -12.883000 -6.336304 -1.092800
			CHANNELS 3 Xrotation Yrotation Zrotation
			JOINT RightLeg
			{
				OFFSET -0.524587 -46.096825 9.782800
				CHANNELS 3 Xrotation Yrotation Zrotation
				JOINT RightFoot
				{
					OFFSET 0.524587 -53.427383 -12.948300
					CHANNELS 3 Xrotation Yrotation Zrotation
					JOINT RightToeBase
					{
						OFFSET -0.192200 -14.009700 16.364100
						CHANNELS 3 Xrotation Yrotation Zrotation
						JOINT RightToe_End
						{
							OFFSET 1.784700 -0.561700 9.474800
							CHANNELS 3 Xrotation Yrotation Zrotation
							End Site
							{
								OFFSET 0 0 0
							}
						}
					}
				}
			}
		}
	}
	JOINT Spine_virtual
	{
		OFFSET 0.000000 0.000000 0.000000
		CHANNELS 3 Xrotation Yrotation Zrotation
		JOINT Spine
		{
			OFFSET 0.072000 7.257294 -0.789700
			CHANNELS 3 Xrotation Yrotation Zrotation
			JOINT Spine1
			{
				OFFSET 0.000000 12.508769 -0.658067
				CHANNELS 3 Xrotation Yrotation Zrotation
				JOINT Spine1_split
				{
					OFFSET 0.000000 12.508769 -0.658067
					CHANNELS 3 Xrotation Yrotation Zrotation
					JOINT Spine2
					{
						OFFSET 0.000000 12.508769 -0.658067
						CHANNELS 3 Xrotation Yrotation Zrotation
						JOINT Neck_virtual
						{
							OFFSET 0.000000 0.000000 0.000000
							CHANNELS 3 Xrotation Yrotation Zrotation
							JOINT Neck
							{
								OFFSET 0.000000 14.033295 7.520400
								CHANNELS 3 Xrotation Yrotation Zrotation
								JOINT Head
								{
									OFFSET 0.000000 8.198502 5.703100
									CHANNELS 3 Xrotation Yrotation Zrotation
									JOINT HeadTop_End
									{
										OFFSET 0.000000 17.760803 13.332701
										CHANNELS 3 Xrotation Yrotation Zrotation
										End Site
										{
											OFFSET 0 0 0
										}
									}
								}
							}
						}
						JOINT LeftShoulder_virtual
						{
							OFFSET 0.000000 0.000000 0.000000
							CHANNELS 3 Xrotation Yrotation Zrotation
							JOINT LeftShoulder
							{
								OFFSET 6.292450 5.785301 -0.669000
								CHANNELS 3 Xrotation Yrotation Zrotation
								JOINT LeftShoulder_split
								{
									OFFSET 6.292450 5.785301 -0.669000
									CHANNELS 3 Xrotation Yrotation Zrotation
									JOINT LeftArm
									{
										OFFSET 13.907140 -6.093903 1.965100
										CHANNELS 3 Xrotation Yrotation Zrotation
										JOINT LeftForeArm
										{
											OFFSET 34.140198 0.000000 0.000000
											CHANNELS 3 Xrotation Yrotation Zrotation
											JOINT LeftHand
											{
												OFFSET 40.960209 0.000000 0.000000
												CHANNELS 3 Xrotation Yrotation Zrotation
												End Site
												{
													OFFSET 0 0 0
												}
											}
										}
									}
								}
							}
						}
						JOINT RightShoulder_virtual
						{
							OFFSET 0.000000 0.000000 0.000000
							CHANNELS 3 Xrotation Yrotation Zrotation
							JOINT RightShoulder
							{
								OFFSET -6.292450 5.785301 -0.669000
								CHANNELS 3 Xrotation Yrotation Zrotation
								JOINT RightShoulder_split
								{
									OFFSET -6.292450 5.785301 -0.669000
									CHANNELS 3 Xrotation Yrotation Zrotation
									JOINT RightArm
									{
										OFFSET -13.907140 -6.093903 1.965100
										CHANNELS 3 Xrotation Yrotation Zrotation
										JOINT RightForeArm
										{
											OFFSET -34.140198 0.000000 0.000000
											CHANNELS 3 Xrotation Yrotation Zrotation
											JOINT RightHand
											{
												OFFSET -40.960209 0.000000 0.000000
												CHANNELS 3 Xrotation Yrotation Zrotation
												End Site
												{
													OFFSET 0 0 0
												}
											}
										}
									}
								}
							}
						}
					}
				}
			}
		}
	}
}
MOTION
Frames: 10
Frame Time: 0.03333333
-0.784574 117.432434 -0.688442 0.000000 0.000000 0.000000 -3.436116 1.899738 2.571254 -1.845090 8.413245 5.416066 12.969453 4.899657 -0.172873 -9.154813 1.433635 -5.242063 0.852750 0.162569 -0.930742 0.000000 0.000000 0.000000 -3.574736 2.369903 2.585514 -3.614004 -10.352778 -10.296392 12.790898 -5.622752 -1.996069 -4.686105 -1.579600 8.062171 -5.086758 -0.413329 -0.330284 0.000000 0.000000 0.000000 -2.588636 2.310282 2.173386 3.426934 -0.469811 0.041307 1.448394 -0.452719 0.747929 0.907604 0.095017 0.150729 0.000000 0.000000 0.000000 0.917492 -0.071903 0.195306 0.250004 0.624441 -1.013437 -4.494750 -5.019866 -1.670939 0.000000 0.000000 0.000000 0.975287 -0.137893 0.376698 0.950632 -2.181998 -16.028181 -0.123415 -0.381115 -0.562177 4.554273 -8.389277 -37.341245 0.844963 -64.964381 0.843716 0.000000 0.000000 0.000000 1.038486 -0.022769 0.442588 1.163465 4.889558 20.396868 1.454822 1.305720 -1.533020 -2.834566 5.684898 57.642336 0.392132 18.688521 0.421465 0.000000 0.000000 0.000000 
-0.828540 117.430107 -0.639431 0.000000 0.000000 0.000000 -3.500011 1.891991 2.611362 -1.805876 8.560144 5.399425 12.917261 4.862163 -0.141880 -9.076042 1.432087 -5.215777 0.862249 0.162315 -0.928581 0.000000 0.000000 0.000000 -3.600623 2.356554 2.615546 -3.580830 -10.313980 -10.314478 12.880056 -5.601037 -1.984124 -4.701438 -1.571778 8.134909 -5.071203 -0.412483 -0.345401 0.000000 0.000000 0.000000 -2.651197 2.379103 2.193884 3.425003 -0.478235 0.035567 1.430105 -0.437971 0.773671 0.962418 0.022310 0.182931 0.000000 0.000000 0.000000 0.949186 -0.066541 0.235739 0.217646 0.713390 -1.146704 -4.348702 -5.037437 -1.637542 0.000000 0.000000 0.000000 0.926393 -0.117754 0.377274 0.985897 -2.151066 -16.011476 -0.223660 -0.595194 -0.562274 4.656145 -8.400074 -37.343489 0.855413 -64.905908 0.855443 0.000000 0.000000 0.000000 1.046005 -0.004836 0.473461 1.203126 4.697218 20.272048 1.087175 1.133057 -1.463110 -2.919687 5.947108 57.309419 0.460581 18.196939 0.475518 0.000000 0.000000 0.000000 
-0.849802 117.431145 -0.594707 0.000000 0.000000 0.000000 -3.546021 2.042096 2.679596 -1.742592 8.692243 5.317962 12.767676 4.819202 -0.099114 -8.970006 1.416806 -5.115969 0.866710 0.163027 -0.929033 0.000000 0.000000 0.000000 -3.643047 2.479726 2.677659 -3.473479 -10.278406 -10.343648 12.988993 -5.643751 -1.970725 -4.746954 -1.616490 8.218646 -5.047215 -0.415716 -0.345615 0.000000 0.000000 0.000000 -2.721072 2.533584 2.239095 3.392291 -0.483737 0.023733 1.403488 -0.427911 0.786971 0.945811 0.010616 0.210854 0.000000 0.000000 0.000000 0.959517 -0.069451 0.264604 0.231110 0.899458 -1.247491 -4.022535 -4.939427 -1.568277 0.000000 0.000000 0.000000 0.891593 -0.099108 0.362366 1.033025 -2.089012 -15.953415 -0.274366 -0.772072 -0.620870 4.732666 -8.386098 -37.382974 0.898463 -64.869510 0.930296 0.000000 0.000000 0.000000 1.056792 0.007144 0.487192 1.278797 4.535692 19.907860 0.778200 1.072967 -1.368488 -3.125516 6.149174 57.206427 0.516540 17.637254 0.508833 0.000000 0.000000 0.000000 
-0.840460 117.426697 -0.551334 0.000000 0.000000 0.000000 -3.584170 2.321201 2.758536 -1.675868 8.791577 5.185147 12.577676 4.756005 -0.048420 -8.863946 1.389990 -4.961189 0.871526 0.164562 -0.933263 0.000000 0.000000 0.000000 -3.697818 2.723641 2.756487 -3.300687 -10.252343 -10.379946 13.087319 -5.750023 -1.959088 -4.821439 -1.700036 8.312905 -5.028381 -0.419908 -0.336563 0.000000 0.000000 0.000000 -2.797817 2.741483 2.298970 3.335682 -0.482822 0.015190 1.368295 -0.422391 0.786710 0.882207 0.052986 0.215087 0.000000 0.000000 0.000000 0.943109 -0.079833 0.282595 0.287263 1.175302 -1.313932 -3.555083 -4.745007 -1.462539 0.000000 0.000000 0.000000 0.865142 -0.086503 0.338384 1.084903 -2.011690 -15.861952 -0.308989 -0.880489 -0.685995 4.761883 -8.345953 -37.454541 0.963245 -64.853862 1.051627 0.000000 0.000000 0.000000 1.067915 0.014160 0.483736 1.378733 4.411769 19.339643 0.574527 1.068594 -1.284285 -3.350944 6.271230 57.340627 0.552193 17.207405 0.512144 0.000000 0.000000 0.000000 
-0.810389 117.409744 -0.521408 0.000000 0.000000 0.000000 -3.620789 2.704257 2.837076 -1.632841 8.845452 5.020625 12.402691 4.660088 0.006235 -8.784547 1.353393 -4.776910 0.882840 0.167802 -0.943259 0.000000 0.000000 0.000000 -3.758885 3.066761 2.836868 -3.092135 -10.238909 -10.419502 13.167046 -5.907930 -1.946147 -4.922613 -1.791149 8.423816 -5.019561 -0.422226 -0.323352 0.000000 0.000000 0.000000 -2.870498 2.987728 2.363538 3.261650 -0.470166 0.020331 1.327489 -0.421944 0.773123 0.842235 0.096054 0.204888 0.000000 0.000000 0.000000 0.900335 -0.093706 0.290076 0.366764 1.533286 -1.359593 -3.010008 -4.519285 -1.317956 0.000000 0.000000 0.000000 0.848921 -0.083699 0.312185 1.136228 -1.927876 -15.740559 -0.385108 -0.933312 -0.760633 4.741485 -8.294420 -37.552653 1.029173 -64.857209 1.193806 0.000000 0.000000 0.000000 1.081165 0.015128 0.464104 1.498038 4.328179 18.601206 0.394273 1.034321 -1.218565 -3.410708 6.281292 57.664050 0.568820 17.269443 0.484319 0.000000 0.000000 0.000000 
-0.772361 117.373123 -0.501579 0.000000 0.000000 0.000000 -3.663472 3.156615 2.906582 -1.629747 8.846105 4.848061 12.272459 4.526105 0.058739 -8.743006 1.308671 -4.592992 0.892975 0.173059 -0.957500 0.000000 0.000000 0.000000 -3.836196 3.476309 2.912099 -2.867476 -10.250304 -10.463743 13.220165 -6.098092 -1.931571 -5.046609 -1.854668 8.556624 -5.016857 -0.420262 -0.308826 0.000000 0.000000 0.000000 -2.937784 3.274260 2.433111 3.182869 -0.441814 0.044047 1.285710 -0.426115 0.750437 0.832868 0.152530 0.203262 0.000000 0.000000 0.000000 0.835546 -0.107439 0.287600 0.450310 1.951195 -1.393528 -2.454906 -4.320297 -1.138100 0.000000 0.000000 0.000000 0.841457 -0.086842 0.290167 1.181128 -1.852924 -15.593739 -0.465920 -0.956597 -0.826597 4.692506 -8.244124 -37.675098 1.082928 -64.888614 1.334494 0.000000 0.000000 0.000000 1.089092 0.009834 0.433635 1.636535 4.267036 17.725890 0.256291 0.958407 -1.152790 -3.140451 6.220666 58.141883 0.577914 18.201218 0.427831 0.000000 0.000000 0.000000 
-0.725269 117.318542 -0.485168 0.000000 0.000000 0.000000 -3.711101 3.673281 2.971731 -1.672078 8.795956 4.673194 12.186751 4.366286 0.101355 -8.733815 1.256378 -4.421581 0.885050 0.180000 -0.969186 0.000000 0.000000 0.000000 -3.919487 3.940127 2.978000 -2.640515 -10.314328 -10.514876 13.248020 -6.310389 -1.917571 -5.185737 -1.874750 8.711677 -5.012422 -0.414407 -0.296467 0.000000 0.000000 0.000000 -2.997827 3.596677 2.509871 3.106657 -0.390587 0.089805 1.242724 -0.431976 0.720593 0.833859 0.188321 0.207196 0.000000 0.000000 0.000000 0.756963 -0.115169 0.274800 0.526573 2.401924 -1.428047 -1.966451 -4.193083 -0.931190 0.000000 0.000000 0.000000 0.842240 -0.093624 0.274408 1.221673 -1.787655 -15.440140 -0.517416 -0.964317 -0.865103 4.641452 -8.184726 -37.827363 1.123827 -64.956725 1.457548 0.000000 0.000000 0.000000 1.087545 -0.000845 0.392847 1.792574 4.228328 16.745816 0.180815 0.941022 -1.105662 -2.475057 6.132602 58.703133 0.583011 20.293622 0.355837 0.000000 0.000000 0.000000 
-0.681812 117.256317 -0.475864 0.000000 0.000000 0.000000 -3.750268 4.226970 3.039688 -1.750018 8.702082 4.501007 12.137687 4.186856 0.130225 -8.722694 1.195222 -4.267610 0.847855 0.188647 -0.975002 0.000000 0.000000 0.000000 -4.001805 4.452246 3.044823 -2.421886 -10.450306 -10.579797 13.247526 -6.538218 -1.902994 -5.330524 -1.842982 8.884609 -5.010610 -0.406123 -0.287130 0.000000 0.000000 0.000000 -3.041815 3.973425 2.597160 3.041294 -0.312065 0.152649 1.199062 -0.432476 0.685883 0.837426 0.177095 0.241954 0.000000 0.000000 0.000000 0.679782 -0.114355 0.250504 0.593424 2.865334 -1.478739 -1.608587 -4.196736 -0.711867 0.000000 0.000000 0.000000 0.855488 -0.101442 0.263313 1.255933 -1.733362 -15.295188 -0.519401 -0.923645 -0.878665 4.599848 -8.098347 -38.019179 1.160659 -65.068016 1.560891 0.000000 0.000000 0.000000 1.076093 -0.015280 0.346071 1.963163 4.216144 15.707671 0.067333 1.012677 -1.050409 -1.381565 6.107247 59.314660 0.599945 23.558699 0.278933 0.000000 0.000000 0.000000 
-0.644471 117.204407 -0.486664 0.000000 0.000000 0.000000 -3.765853 4.805478 3.114452 -1.863208 8.574648 4.326901 12.113985 4.002957 0.146338 -8.671711 1.134099 -4.122273 0.796587 0.198037 -0.975399 0.000000 0.000000 0.000000 -4.057109 5.005614 3.120219 -2.224321 -10.675594 -10.669771 13.201565 -6.774211 -1.890285 -5.464521 -1.762607 9.081916 -5.032598 -0.396014 -0.281156 0.000000 0.000000 0.000000 -3.053874 4.424998 2.698491 2.996160 -0.204364 0.232014 1.153226 -0.421759 0.647420 0.839781 0.097782 0.252373 0.000000 0.000000 0.000000 0.617668 -0.102993 0.217124 0.655073 3.322009 -1.538101 -1.393139 -4.364262 -0.495941 0.000000 0.000000 0.000000 0.876633 -0.103775 0.254329 1.280674 -1.705700 -15.171821 -0.455531 -0.838196 -0.863766 4.549083 -7.991426 -38.252973 1.202852 -65.238128 1.645837 0.000000 0.000000 0.000000 1.059649 -0.023122 0.300335 2.132695 4.256156 14.664703 -0.057074 1.216676 -1.002392 0.036464 6.212516 59.897877 0.620258 27.738911 0.207565 0.000000 0.000000 0.000000 
-0.616084 117.175232 -0.525040 0.000000 0.000000 0.000000 -3.738467 5.423038 3.201957 -2.032110 8.425542 4.137449 12.096096 3.827215 0.155614 -8.568352 1.081633 -3.963502 0.748487 0.206745 -0.970777 0.000000 0.000000 0.000000 -4.061919 5.600143 3.207952 -2.064242 -10.991435 -10.785906 13.111804 -7.017528 -1.877446 -5.585296 -1.652695 9.292028 -5.068607 -0.385367 -0.275275 0.000000 0.000000 0.000000 -3.020044 4.956442 2.815379 2.976322 -0.066372 0.333108 1.107632 -0.396553 0.607486 0.838279 0.001545 0.260856 0.000000 0.000000 0.000000 0.577055 -0.077172 0.182745 0.708038 3.756942 -1.597061 -1.287448 -4.697993 -0.306630 0.000000 0.000000 0.000000 0.903885 -0.094435 0.244738 1.295783 -1.713060 -15.088793 -0.352247 -0.708323 -0.863706 4.481813 -7.888947 -38.507865 1.254687 -65.458375 1.717040 0.000000 0.000000 0.000000 1.053064 -0.015014 0.259600 2.287342 4.404268 13.661826 -0.221437 1.436271 -0.919027 1.610925 6.485801 60.314416 0.611900 32.472092 0.161682 0.000000 0.000000 0.000000 
